# xmcd CD database file
#
# Track frame offsets:
#	150
#	26325
#	45037
#	71175
#
# Disc length: 1193 seconds
#
# Revision: 3
# Processed by: cddbd v1.5.1PL2 Copyright (c) Steve Scherf et al.
# Submitted via: CDex 1.51
#
DISCID=2704a704
DTITLE=Kiroro - 冬のうた
DYEAR=2001
DGENRE=J-Pop
TTITLE0=冬のうた
TTITLE1=キセキ
TTITLE2=冬のうた （オリジナル・カラオケ）
TTITLE3=キセキ （オリジナル・カラオケ）
EXTD=YEAR: 2001/12/19
EXTT0=
EXTT1=
EXTT2=
EXTT3=
PLAYORDER=
